<svg width="20" height="21" viewBox="0 0 20 21" fill="none" xmlns="http://www.w3.org/2000/svg">
<g id="Account balance wallet" clip-path="url(#clip0_148_856)">
<path id="Vector" d="M17.5 15.5V16.3333C17.5 17.25 16.75 18 15.8333 18H4.16667C3.24167 18 2.5 17.25 2.5 16.3333V4.66667C2.5 3.75 3.24167 3 4.16667 3H15.8333C16.75 3 17.5 3.75 17.5 4.66667V5.5H10C9.075 5.5 8.33333 6.25 8.33333 7.16667V13.8333C8.33333 14.75 9.075 15.5 10 15.5H17.5ZM10 13.8333H18.3333V7.16667H10V13.8333ZM13.3333 11.75C12.6417 11.75 12.0833 11.1917 12.0833 10.5C12.0833 9.80833 12.6417 9.25 13.3333 9.25C14.025 9.25 14.5833 9.80833 14.5833 10.5C14.5833 11.1917 14.025 11.75 13.3333 11.75Z" fill="white"/>
</g>
<defs>
<clipPath id="clip0_148_856">
<rect width="20" height="20" fill="white" transform="translate(0 0.5)"/>
</clipPath>
</defs>
</svg>
