<svg width="20" height="21" viewBox="0 0 20 21" fill="none" xmlns="http://www.w3.org/2000/svg">
<g id="Account circle" clip-path="url(#clip0_148_838)">
<path id="Vector" d="M10 2.16675C5.4 2.16675 1.66666 5.90008 1.66666 10.5001C1.66666 15.1001 5.4 18.8334 10 18.8334C14.6 18.8334 18.3333 15.1001 18.3333 10.5001C18.3333 5.90008 14.6 2.16675 10 2.16675ZM10 4.66675C11.3833 4.66675 12.5 5.78341 12.5 7.16675C12.5 8.55008 11.3833 9.66675 10 9.66675C8.61666 9.66675 7.5 8.55008 7.5 7.16675C7.5 5.78341 8.61666 4.66675 10 4.66675ZM10 16.5001C7.91666 16.5001 6.075 15.4334 5 13.8167C5.025 12.1584 8.33333 11.2501 10 11.2501C11.6583 11.2501 14.975 12.1584 15 13.8167C13.925 15.4334 12.0833 16.5001 10 16.5001Z" fill="white"/>
</g>
<defs>
<clipPath id="clip0_148_838">
<rect width="20" height="20" fill="white" transform="translate(0 0.5)"/>
</clipPath>
</defs>
</svg>
