<svg width="20" height="21" viewBox="0 0 20 21" fill="none" xmlns="http://www.w3.org/2000/svg">
<g id="Frame 52">
<path id="Rectangle 6" d="M0.689012 12.6605C0.306088 12.2744 0.301973 11.653 0.679749 11.2618L10.7006 0.884615C10.7006 0.884615 13.3176 2.57494 15.0318 3.57692C14.503 4.17565 14.503 5.02947 15.0318 5.6282C15.6268 6.30177 16.7299 6.30177 17.3248 5.6282C17.8537 5.02947 17.8537 4.17565 17.3248 3.57692C16.7299 2.90335 15.6268 2.90335 15.0318 3.57692C13.3176 2.57494 10.7006 0.884615 10.7006 0.884615L18.9149 0.544878C19.4992 0.520714 19.9794 1.00083 19.9554 1.58508L19.6344 9.39819C19.6238 9.65618 19.5138 9.90008 19.3274 10.0788L9.17239 19.8192C8.77849 20.197 8.15439 20.1892 7.77008 19.8016L0.689012 12.6605Z" fill="white"/>
</g>
</svg>
