<svg width="20" height="21" viewBox="0 0 20 21" fill="none" xmlns="http://www.w3.org/2000/svg">
<g id="Location on" clip-path="url(#clip0_113_701)">
<path id="Vector" d="M10 2.16675C6.77501 2.16675 4.16667 4.77508 4.16667 8.00008C4.16667 12.3751 10 18.8334 10 18.8334C10 18.8334 15.8333 12.3751 15.8333 8.00008C15.8333 4.77508 13.225 2.16675 10 2.16675ZM10.1042 12.1667C6.04167 12.2965 6.45834 7.79175 6.45834 7.79175L10.1042 4.45841L13.75 7.79175C13.75 7.79175 14.1667 12.037 10.1042 12.1667Z" fill="white"/>
<path id="Rectangle 5" d="M6.875 10.7084L6.25 7.79175H7.5V10.7084H9.375V8.52091H10.8333V10.7084H12.7083V7.79175H14.1667L13.5417 10.7084V12.1667H6.875V10.7084Z" fill="white"/>
</g>
<defs>
<clipPath id="clip0_113_701">
<rect width="20" height="20" fill="white" transform="translate(0 0.5)"/>
</clipPath>
</defs>
</svg>
