<svg width="96" height="96" viewBox="0 0 96 96" fill="none" xmlns="http://www.w3.org/2000/svg">
<g clip-path="url(#clip0_136_1300)">
<path d="M68 48C56.96 48 48 56.96 48 68C48 79.04 56.96 88 68 88C79.04 88 88 79.04 88 68C88 56.96 79.04 48 68 48ZM74.6 77.4L66 68.8V56H70V67.16L77.4 74.56L74.6 77.4ZM72 12H59.28C57.6 7.36 53.2 4 48 4C42.8 4 38.4 7.36 36.72 12H24C19.6 12 16 15.6 16 20V80C16 84.4 19.6 88 24 88H48.44C46.08 85.72 44.16 83 42.76 80H24V20H32V32H64V20H72V40.32C74.84 40.72 77.52 41.56 80 42.72V20C80 15.6 76.4 12 72 12ZM48 20C45.8 20 44 18.2 44 16C44 13.8 45.8 12 48 12C50.2 12 52 13.8 52 16C52 18.2 50.2 20 48 20Z" fill="white"/>
</g>
<defs>
<clipPath id="clip0_136_1300">
<rect width="96" height="96" fill="white"/>
</clipPath>
</defs>
</svg>
